<svg xmlns="http://www.w3.org/2000/svg" viewBox="0 0 600 560" font-family="Arial, Helvetica, sans-serif">
<defs>
  <linearGradient id="leaf" x1="0" y1="0" x2="1" y2="1">
    <stop offset="0" stop-color="#57b947"/><stop offset="100%" stop-color="#3aa935"/>
  </linearGradient>
</defs>
<path d="M 226.12 85.44 A 120 120 0 0 0 182.62 155.05" stroke="#f2b024" stroke-width="22" fill="none" stroke-linecap="round"/><path d="M 181.17 163.30 A 120 120 0 0 0 295.81 299.93" stroke="#3aa935" stroke-width="22" fill="none" stroke-linecap="round"/><path d="M 304.19 299.93 A 120 120 0 0 0 403.92 240.00" stroke="#2a8fd0" stroke-width="22" fill="none" stroke-linecap="round"/><path d="M 407.86 232.60 A 120 120 0 0 0 232.90 80.52" stroke="#3aa935" stroke-width="22" fill="none" stroke-linecap="round"/>
<g fill="#1f3a56">
  <polygon points="243,178 300,120 357,178 343,178 343,250 257,250 257,178"/>
  <polygon points="336,178 336,131 352,131 352,178"/>
</g>
<rect x="255" y="176" width="90" height="6" fill="#1f3a56"/>
<rect x="286" y="150" width="30" height="30" rx="2" fill="#dbe4ea"/>
<line x1="301" y1="150" x2="301" y2="180" stroke="#1f3a56" stroke-width="3"/>
<line x1="286" y1="165" x2="316" y2="165" stroke="#1f3a56" stroke-width="3"/>
<g transform="translate(300,250) rotate(26) scale(1.18)">
  <path d="M0,-46 Q28,0 0,46 Q-28,0 0,-46 Z" fill="url(#leaf)"/>
  <path d="M0,-40 Q6,0 0,40" stroke="#eafbe6" stroke-width="2.6" fill="none" opacity=".9"/>
  <path d="M0,-20 Q12,-16 21,-24 M0,0 Q13,4 22,-4 M0,20 Q11,26 18,20" stroke="#eafbe6" stroke-width="2.2" fill="none" opacity=".75"/>
</g>
<text x="300" y="432" text-anchor="middle" font-size="98" font-weight="800" letter-spacing="1"><tspan fill="#3aa935">ECO</tspan><tspan fill="#2a8fd0">DOMUS</tspan></text>
<text x="556" y="366" font-size="24" font-weight="700" fill="#2a8fd0">&#174;</text>
<line x1="58" y1="482" x2="98" y2="482" stroke="#3aa935" stroke-width="5" stroke-linecap="round"/>
<circle cx="54" cy="482" r="5" fill="#3aa935"/>
<text x="300" y="492" text-anchor="middle" font-size="29" font-weight="700" letter-spacing="4" fill="#1f3a56">SVILUPPO IMMOBILIARE</text>
<line x1="502" y1="482" x2="542" y2="482" stroke="#3aa935" stroke-width="5" stroke-linecap="round"/>
<circle cx="546" cy="482" r="5" fill="#3aa935"/>
</svg>